<?xml version="1.0" encoding="utf-8"?>
<!-- Generator: Adobe Illustrator 16.0.0, SVG Export Plug-In . SVG Version: 6.00 Build 0)  -->
<!DOCTYPE svg PUBLIC "-//W3C//DTD SVG 1.0//EN" "http://www.w3.org/TR/2001/REC-SVG-20010904/DTD/svg10.dtd">
<svg version="1.0" id="Layer_1" xmlns="http://www.w3.org/2000/svg" xmlns:xlink="http://www.w3.org/1999/xlink" x="0px" y="0px"
	 width="260px" height="260px" viewBox="0 0 260 260" enable-background="new 0 0 260 260" xml:space="preserve">
<title>HTML5 Offline Storage Logo</title>
<path fill="#FFFFFF" d="M260,86.5h-42.3c-17.3-41.6-58.6-69.8-104.5-69.8C50.8,16.7,0,67.5,0,130s50.8,113.3,113.2,113.3
	c45.9,0,87.1-28.1,104.5-69.8h42.2L260,86.5L260,86.5z M226.4,139.8H113.2c-5.4,0-9.8-4.3-9.8-9.8c0-5.4,4.3-9.8,9.8-9.8h113.1
	L226.4,139.8L226.4,139.8z M113.2,209.7c-43.9,0-79.7-35.7-79.7-79.7c0-43.9,35.7-79.7,79.7-79.7c27.2,0,52.2,14.1,66.7,36.2h-66.7
	c-23.9,0-43.4,19.4-43.4,43.4c0,23.9,19.4,43.4,43.4,43.4H180C165.6,195.6,140.6,209.7,113.2,209.7z"/>
</svg>
