<?xml version="1.0" encoding="utf-8"?>
<!-- Generator: Adobe Illustrator 16.0.0, SVG Export Plug-In . SVG Version: 6.00 Build 0)  -->
<!DOCTYPE svg PUBLIC "-//W3C//DTD SVG 1.0//EN" "http://www.w3.org/TR/2001/REC-SVG-20010904/DTD/svg10.dtd">
<svg version="1.0" id="Layer_1" xmlns="http://www.w3.org/2000/svg" xmlns:xlink="http://www.w3.org/1999/xlink" x="0px" y="0px"
	 width="100px" height="100px" viewBox="0 0 100 100" enable-background="new 0 0 100 100" xml:space="preserve">
<g>
	<path fill="#FFFFFF" d="M25.4,47.8l2.7,2.7c5.4-5.9,13.2-9.7,21.9-9.7c8.7,0,16.5,3.8,21.9,9.7l2.7-2.7
		C68.5,41.1,59.7,36.9,50,36.9C40.3,36.9,31.5,41.1,25.4,47.8z"/>
	<path fill="#FFFFFF" d="M17.3,39.5l2.7,2.7c7.5-8,18.1-13,29.9-13c11.8,0,22.4,5,29.9,13l2.7-2.7C74.4,30.8,62.9,25.3,50,25.3
		C37.1,25.3,25.5,30.8,17.3,39.5z"/>
	<path fill="#FFFFFF" d="M50,12.5c-15.9,0-30.3,6.7-40.5,17.4l2.7,2.7c9.5-10,22.9-16.3,37.8-16.3c14.8,0,28.2,6.3,37.7,16.3
		l2.7-2.7C80.3,19.2,65.9,12.5,50,12.5z"/>
	<g>
		<path fill="#FFFFFF" d="M50,87.5c-10.9,0-19.7-8.8-19.7-19.7c0-10.9,8.8-19.7,19.7-19.7c10.9,0,19.7,8.8,19.7,19.7
			C69.7,78.7,60.9,87.5,50,87.5z M50,50.6c-9.5,0-17.2,7.7-17.2,17.2C32.8,77.3,40.5,85,50,85c9.5,0,17.2-7.7,17.2-17.2
			C67.2,58.3,59.5,50.6,50,50.6z"/>
	</g>
</g>
<g>
	<rect x="49.6" y="62.5" fill="#FFFFFF" width="2.1" height="7.1"/>
	<rect x="49.6" y="70.7" fill="#FFFFFF" width="2.1" height="1.8"/>
	<path fill="#FFFFFF" d="M50.7,55.4L36.8,75.8h27L50.7,55.4z M50.6,59.2L60,73.7H40.8L50.6,59.2z"/>
</g>
</svg>
