<svg version="1" xmlns="http://www.w3.org/2000/svg" width="100" height="100" viewBox="0 0 100 100"><path fill="#FFF" d="M25.4 47.8l2.7 2.7c5.4-5.9 13.2-9.7 21.9-9.7s16.5 3.8 21.9 9.7l2.7-2.7C68.5 41.1 59.7 36.9 50 36.9c-9.7 0-18.5 4.2-24.6 10.9z"/><path fill="#FFF" d="M17.3 39.5l2.7 2.7c7.5-8 18.1-13 29.9-13 11.8 0 22.4 5 29.9 13l2.7-2.7C74.4 30.8 62.9 25.3 50 25.3c-12.9 0-24.5 5.5-32.7 14.2z"/><path fill="#FFF" d="M50 12.5c-15.9 0-30.3 6.7-40.5 17.4l2.7 2.7c9.5-10 22.9-16.3 37.8-16.3 14.8 0 28.2 6.3 37.7 16.3l2.7-2.7C80.3 19.2 65.9 12.5 50 12.5zM50 87.5c-10.9 0-19.7-8.8-19.7-19.7 0-10.9 8.8-19.7 19.7-19.7 10.9 0 19.7 8.8 19.7 19.7 0 10.9-8.8 19.7-19.7 19.7zm0-36.9c-9.5 0-17.2 7.7-17.2 17.2S40.5 85 50 85s17.2-7.7 17.2-17.2S59.5 50.6 50 50.6z"/><g fill="#FFF"><path d="M49.6 62.5h2.1v7.1h-2.1zM49.6 70.7h2.1v1.8h-2.1z"/><path d="M50.7 55.4L36.8 75.8h27L50.7 55.4zm-.1 3.8L60 73.7H40.8l9.8-14.5z"/></g></svg>