<svg version="1" xmlns="http://www.w3.org/2000/svg" width="260" height="260" viewBox="0 0 260 260"><title>HTML5 Offline Storage Logo</title><path fill="#FFF" d="M260 86.5h-42.3c-17.3-41.6-58.6-69.8-104.5-69.8C50.8 16.7 0 67.5 0 130s50.8 113.3 113.2 113.3c45.9 0 87.1-28.1 104.5-69.8h42.2l.1-87zm-33.6 53.3H113.2c-5.4 0-9.8-4.3-9.8-9.8 0-5.4 4.3-9.8 9.8-9.8h113.1l.1 19.6zm-113.2 69.9c-43.9 0-79.7-35.7-79.7-79.7 0-43.9 35.7-79.7 79.7-79.7 27.2 0 52.2 14.1 66.7 36.2h-66.7c-23.9 0-43.4 19.4-43.4 43.4 0 23.9 19.4 43.4 43.4 43.4H180c-14.4 22.3-39.4 36.4-66.8 36.4z"/></svg>