<?xml version="1.0" encoding="utf-8"?>
<!-- Generator: Adobe Illustrator 18.0.0, SVG Export Plug-In . SVG Version: 6.00 Build 0)  -->
<!DOCTYPE svg PUBLIC "-//W3C//DTD SVG 1.0//EN" "http://www.w3.org/TR/2001/REC-SVG-20010904/DTD/svg10.dtd">
<svg version="1.0" id="Layer_1" xmlns="http://www.w3.org/2000/svg" xmlns:xlink="http://www.w3.org/1999/xlink" x="0px" y="0px"
	 width="144px" height="144px" viewBox="0 0 144 144" enable-background="new 0 0 144 144" xml:space="preserve">
<g>
	<g>
		<path fill="#E9A823" d="M90.1,18.5c-1.9-5.7-8-8.8-13.7-7s-8.8,8-7,13.7l28.1,86.4c1.9,5.3,7.7,8.3,13.2,6.7
			c5.8-1.7,9.3-7.8,7.4-13.4C118.1,104.7,90.1,18.5,90.1,18.5z"/>
		<path fill="#3FB991" d="M46.6,32.7c-1.9-5.7-8-8.8-13.7-7c-5.7,1.9-8.8,8-7,13.7L54,125.8c1.9,5.3,7.7,8.3,13.2,6.7
			c5.8-1.7,9.3-7.8,7.4-13.4C74.6,118.9,46.6,32.7,46.6,32.7z"/>
		<path fill="#E11765" d="M125.5,90.1c5.7-1.9,8.8-8,7-13.7s-8-8.8-13.7-7L32.3,97.5c-5.3,1.9-8.3,7.7-6.7,13.2
			c1.7,5.8,7.8,9.3,13.4,7.4C39.3,118.1,125.5,90.1,125.5,90.1z"/>
		<path fill="#472A49" d="M50.3,114.5c5.6-1.8,12.9-4.2,20.7-6.7c-1.8-5.6-4.2-12.9-6.7-20.7l-20.7,6.7L50.3,114.5z"/>
		<path fill="#CD2027" d="M93.9,100.4c7.8-2.5,15.1-4.9,20.7-6.7c-1.8-5.6-4.2-12.9-6.7-20.7l-20.7,6.7L93.9,100.4z"/>
		<path fill="#71CBDC" d="M111.3,46.6c5.7-1.9,8.8-8,7-13.7c-1.9-5.7-8-8.8-13.7-7L18.2,54c-5.3,1.9-8.3,7.7-6.7,13.2
			c1.7,5.8,7.8,9.3,13.4,7.4C25.1,74.6,111.3,46.6,111.3,46.6z"/>
		<path fill="#1D947E" d="M36.2,71c5.6-1.8,12.9-4.2,20.7-6.7c-2.5-7.8-4.9-15.1-6.7-20.7l-20.7,6.7L36.2,71z"/>
		<path fill="#66873A" d="M79.7,56.9c7.8-2.5,15.1-4.9,20.7-6.7c-2.5-7.8-4.9-15.1-6.7-20.7L73,36.2L79.7,56.9z"/>
	</g>
</g>
</svg>
